<?xml version="1.0" encoding="UTF-8"?>
<svg version="1.1" xmlns="http://www.w3.org/2000/svg" width="74" height="87">
<path d="M0 0 C24.42 0 48.84 0 74 0 C74 28.71 74 57.42 74 87 C49.58 87 25.16 87 0 87 C0 58.29 0 29.58 0 0 Z " fill="#FD6F6F" transform="translate(0,0)"/>
<path d="M0 0 C24.42 0 48.84 0 74 0 C74 28.71 74 57.42 74 87 C49.58 87 25.16 87 0 87 C0 58.29 0 29.58 0 0 Z M6 19 C5.95875 24.960625 5.9175 30.92125 5.875 37.0625 C5.85679199 38.93043213 5.83858398 40.79836426 5.81982422 42.72290039 C5.81397659 44.2228161 5.80888168 45.72273501 5.8046875 47.22265625 C5.79445557 47.98574097 5.78422363 48.74882568 5.77368164 49.53503418 C5.77072157 58.72457674 8.63802272 68.0869378 14.82421875 75.0546875 C22.93555921 82.48078702 30.93559043 85.39669062 41.8359375 85.27734375 C50.7666901 84.49452469 58.96527145 79.7666521 64.72265625 72.96484375 C72.79880594 61.71379491 72.38460188 50.15815497 72.1875 36.875 C72.125625 30.97625 72.06375 25.0775 72 19 C50.22 19 28.44 19 6 19 Z " fill="#FDFCFC" transform="translate(0,0)"/>
<path d="M0 0 C0 1.32 0 2.64 0 4 C-3.96 5.98 -3.96 5.98 -8 8 C-5.36 8.99 -2.72 9.98 0 11 C0 12.65 0 14.3 0 16 C-2.31375405 15.19093245 -4.62598948 14.37793083 -6.9375 13.5625 C-7.59685547 13.33240234 -8.25621094 13.10230469 -8.93554688 12.86523438 C-13.88671875 11.11328125 -13.88671875 11.11328125 -15 10 C-15.04063832 8.33382885 -15.042721 6.66611905 -15 5 C-13.06532058 4.16013916 -11.12714871 3.32831973 -9.1875 2.5 C-8.10855469 2.0359375 -7.02960937 1.571875 -5.91796875 1.09375 C-3 0 -3 0 0 0 Z " fill="#140808" transform="translate(30,41)"/>
<path d="M0 0 C5 1.66666667 10 3.33333333 15 5 C15 6.65 15 8.3 15 10 C10.05 11.98 5.1 13.96 0 16 C0 14.35 0 12.7 0 11 C2.64 10.01 5.28 9.02 8 8 C5.36 6.68 2.72 5.36 0 4 C0 2.68 0 1.36 0 0 Z " fill="#0D0606" transform="translate(48,41)"/>
<path d="M0 0 C0.66 0.33 1.32 0.66 2 1 C2 1.99 2 2.98 2 4 C3.98 4 5.96 4 8 4 C7.505 4.37125 7.01 4.7425 6.5 5.125 C4.40244486 7.74694393 4.78256165 9.73842472 5 13 C3.6078125 12.7215625 3.6078125 12.7215625 2.1875 12.4375 C-1.01343771 11.75876119 -1.01343771 11.75876119 -4 13 C-3.67 11.02 -3.34 9.04 -3 7 C-4.32 6.34 -5.64 5.68 -7 5 C-7 4.67 -7 4.34 -7 4 C-5.02 4 -3.04 4 -1 4 C-0.67 2.68 -0.34 1.36 0 0 Z " fill="#292929" transform="translate(38,3)"/>
<path d="M0 0 C0.66 0 1.32 0 2 0 C2 1.32 2 2.64 2 4 C3.98 4 5.96 4 8 4 C8 4.66 8 5.32 8 6 C7.525625 6.45375 7.05125 6.9075 6.5625 7.375 C4.77906263 9.22977487 4.4308007 10.50135592 4 13 C3.236875 12.835 2.47375 12.67 1.6875 12.5 C-1.03596236 11.90854604 -1.03596236 11.90854604 -4 12 C-3.7525 11.4225 -3.505 10.845 -3.25 10.25 C-3.1675 9.5075 -3.085 8.765 -3 8 C-4.85432087 5.72855926 -4.85432087 5.72855926 -7 4 C-5.02 3.67 -3.04 3.34 -1 3 C-0.67 2.01 -0.34 1.02 0 0 Z " fill="#292929" transform="translate(15,3)"/>
<path d="M0 0 C0.99 0 1.98 0 3 0 C0 10 -3 20 -6 30 C-6.99 30 -7.98 30 -9 30 C-2.31979695 2.31979695 -2.31979695 2.31979695 0 0 Z " fill="#261010" transform="translate(42,34)"/>
<path d="M0 0 C0.66 0 1.32 0 2 0 C2.12375 0.928125 2.12375 0.928125 2.25 1.875 C2.81258459 4.18437567 2.81258459 4.18437567 5.0625 5.25 C5.701875 5.4975 6.34125 5.745 7 6 C6.01 7.485 6.01 7.485 5 9 C4.36707617 11.11280345 4.36707617 11.11280345 4 13 C3.236875 12.835 2.47375 12.67 1.6875 12.5 C-1.03596236 11.90854604 -1.03596236 11.90854604 -4 12 C-3.7525 11.4225 -3.505 10.845 -3.25 10.25 C-3.1675 9.5075 -3.085 8.765 -3 8 C-4.85432087 5.72855926 -4.85432087 5.72855926 -7 4 C-5.02 3.67 -3.04 3.34 -1 3 C-0.67 2.01 -0.34 1.02 0 0 Z " fill="#222222" transform="translate(60,3)"/>
<path d="M0 0 C0.98120464 3.05263664 0.98120464 4.94736336 0 8 C-0.99 8 -1.98 8 -3 8 C-1.125 1.125 -1.125 1.125 0 0 Z " fill="#150909" transform="translate(36,56)"/>
</svg>
